<svg width="21" height="16" viewBox="0 0 21 16" fill="none" xmlns="http://www.w3.org/2000/svg">
<path fill-rule="evenodd" clip-rule="evenodd" d="M2.32227 0C1.2177 0 0.322266 0.895431 0.322266 2V5V14C0.322266 15.1046 1.2177 16 2.32227 16H5.32227H9.32227H12.3223H15.3223H18.3223C19.4268 16 20.3223 15.1046 20.3223 14V5V2C20.3223 0.895431 19.4268 0 18.3223 0H15.3223C14.7249 0 14.1887 0.261878 13.8223 0.677089C13.4558 0.261878 12.9196 0 12.3223 0H9.32227C8.2177 0 7.32227 0.895431 7.32227 2C7.32227 0.895431 6.42684 0 5.32227 0H2.32227ZM13.3223 2C13.3223 1.44772 12.8745 1 12.3223 1H9.32227C8.76998 1 8.32227 1.44772 8.32227 2V3H13.3223V2ZM19.3223 3.26756V2C19.3223 1.44772 18.8745 1 18.3223 1H15.3223C14.77 1 14.3223 1.44772 14.3223 2V3H18.3223C18.6866 3 19.0281 3.09739 19.3223 3.26756Z" fill="#8C939C"/>
</svg>
