<svg width="17" height="20" viewBox="0 0 17 20" fill="none" xmlns="http://www.w3.org/2000/svg">
<path fill-rule="evenodd" clip-rule="evenodd" d="M0.322266 8C0.322266 4.0452 3.90367 0 8.32227 0C12.74 0 16.3223 4.0452 16.3223 8C16.3223 13.063 8.32227 20 8.32227 20C8.32227 20 0.322266 13.063 0.322266 8ZM11.7859 5.45899C12.0795 5.72572 12.0945 6.18233 11.8191 6.4678L7.78589 10.6485C7.597 10.8443 7.2867 10.8545 7.08534 10.6716L4.85754 8.64749C4.56454 8.38128 4.54954 7.92557 4.8244 7.64066C5.08786 7.36756 5.52068 7.35331 5.80154 7.60849L7.38039 9.04298L10.8069 5.49122C11.0708 5.21758 11.5045 5.2033 11.7859 5.45899Z" fill="#8C939C"/>
</svg>
