<svg width="114" height="29" viewBox="0 0 114 29" fill="none" xmlns="http://www.w3.org/2000/svg">
<path d="M8.79834 28.5962C7.4012 28.5962 6.2028 28.4276 5.20312 28.0903C4.20345 27.7651 3.3724 27.2472 2.70996 26.5366C2.03548 25.814 1.52962 24.8745 1.19238 23.7183C0.867188 22.55 0.70459 21.1408 0.70459 19.4907C0.70459 17.6239 0.921387 15.6787 1.35498 13.6553C1.86084 11.3066 2.5835 9.20492 3.52295 7.3501C4.61898 5.19417 5.94987 3.514 7.51562 2.30957C9.29818 0.936523 11.3337 0.25 13.6221 0.25C15.4648 0.25 16.9282 0.635417 18.0122 1.40625C19.2046 2.24935 19.8008 3.514 19.8008 5.2002C19.8008 6.26009 19.6081 7.07308 19.2227 7.63916C18.765 8.28955 18.0905 8.61475 17.1992 8.61475C16.8258 8.61475 16.4585 8.5485 16.0972 8.41602C15.7479 8.28353 15.4167 8.0306 15.1035 7.65723C15.3203 7.54883 15.5311 7.38021 15.7358 7.15137C15.9406 6.91048 16.1213 6.63346 16.2778 6.32031C16.6271 5.62174 16.8018 4.9292 16.8018 4.24268C16.8018 3.58024 16.6331 3.05632 16.2959 2.6709C15.8984 2.21322 15.3143 1.98438 14.5435 1.98438C13.881 1.98438 13.2246 2.23128 12.5742 2.7251C11.9359 3.20687 11.3216 3.89339 10.7314 4.78467C10.1654 5.63981 9.64144 6.63949 9.15967 7.78369C8.6779 8.9279 8.26839 10.1444 7.93115 11.4331C7.59391 12.7339 7.32894 14.0588 7.13623 15.4077C6.94352 16.7567 6.84717 18.0454 6.84717 19.2739C6.84717 20.1893 6.91341 20.9902 7.0459 21.6768C7.19043 22.3633 7.41927 22.9474 7.73242 23.4292C8.41895 24.5011 9.60531 25.0371 11.2915 25.0371C12.7368 25.0371 14.0798 24.7179 15.3203 24.0796C16.5609 23.4292 17.6208 22.5138 18.5 21.3335L19.3491 21.7129C18.8794 22.8932 18.229 23.929 17.3979 24.8203C16.5789 25.6995 15.6515 26.4282 14.6157 27.0063C13.6642 27.5363 12.6826 27.9338 11.6709 28.1987C10.6592 28.4637 9.70166 28.5962 8.79834 28.5962ZM22.8359 28.2168C21.4268 28.2168 20.2886 27.7772 19.4214 26.8979C18.4097 25.8621 17.9038 24.3205 17.9038 22.2729C17.9038 21.4058 17.9941 20.4904 18.1748 19.5269C18.3434 18.5633 18.5964 17.6118 18.9336 16.6724C19.7044 14.5526 20.7583 12.8423 22.0952 11.5415C23.6369 10.0601 25.4134 9.31934 27.4248 9.31934C28.4245 9.31934 29.1712 9.49398 29.665 9.84326C30.1709 10.1805 30.4238 10.6322 30.4238 11.1982V11.4692L30.8213 9.5H36.1509L33.4951 22.0742C33.3867 22.4355 33.3325 22.833 33.3325 23.2666C33.3325 24.3265 33.8384 24.8564 34.8501 24.8564C35.5246 24.8564 36.1388 24.5132 36.6929 23.8267C37.1626 23.2485 37.548 22.4295 37.8491 21.3696H39.4028C38.7404 23.2485 37.9395 24.736 37 25.832C36.2051 26.7354 35.3078 27.3857 34.3081 27.7832C33.5734 28.0723 32.7965 28.2168 31.9775 28.2168C30.9297 28.2168 30.0926 27.9338 29.4663 27.3677C28.8521 26.7896 28.4787 25.9404 28.3462 24.8203C27.6476 25.8079 26.9129 26.5788 26.1421 27.1328C25.1545 27.8555 24.0524 28.2168 22.8359 28.2168ZM25.2388 24.6396C25.5158 24.6396 25.8049 24.5674 26.106 24.4229C26.4191 24.2783 26.7202 24.0736 27.0093 23.8086C27.6597 23.1823 28.0933 22.3693 28.3101 21.3696L30.0806 13.0229C30.0806 12.9025 30.0505 12.764 29.9902 12.6074C29.9421 12.4388 29.8698 12.2822 29.7734 12.1377C29.4844 11.7884 29.0809 11.6138 28.563 11.6138C28.0692 11.6138 27.5874 11.7764 27.1177 12.1016C26.66 12.4268 26.2264 12.8784 25.8169 13.4565C25.0942 14.5044 24.498 15.8714 24.0283 17.5576C23.8115 18.3044 23.6489 19.0451 23.5405 19.7798C23.4321 20.5024 23.3779 21.1589 23.3779 21.749C23.3779 22.9775 23.6068 23.8086 24.0645 24.2422C24.221 24.4108 24.3957 24.5192 24.5884 24.5674C24.7811 24.6156 24.9979 24.6396 25.2388 24.6396ZM51.2183 28.2168C49.6886 28.2168 48.5565 27.7832 47.8218 26.916C47.1834 26.1693 46.8643 25.2118 46.8643 24.0435C46.8643 23.4894 46.9305 22.8451 47.063 22.1104C47.2075 21.3757 47.4183 20.4302 47.6953 19.2739C47.9723 18.0936 48.1771 17.1541 48.3096 16.4556C48.4541 15.745 48.5264 15.1307 48.5264 14.6128C48.5264 13.3481 48.0807 12.7158 47.1895 12.7158C46.5632 12.7158 45.985 13.047 45.4551 13.7095C45.0094 14.2756 44.624 15.0825 44.2988 16.1304L41.7876 28H36.458L40.3784 9.5H45.708L45.3105 11.415C46.0332 10.6081 46.8101 10.042 47.6411 9.7168C48.2554 9.47591 48.9178 9.35547 49.6284 9.35547C50.881 9.35547 51.8687 9.68066 52.5913 10.3311C53.3621 11.0417 53.7476 12.1076 53.7476 13.5288C53.7476 14.384 53.591 15.498 53.2778 16.8711C53.1935 17.2686 53.055 17.8647 52.8623 18.6597C52.513 19.9966 52.2601 21.0625 52.1035 21.8574C52.0072 22.3633 51.959 22.7728 51.959 23.0859C51.959 23.5798 52.0674 23.9652 52.2842 24.2422C52.513 24.5072 52.8984 24.6396 53.4404 24.6396C54.1751 24.6396 54.7954 24.3385 55.3013 23.7363C55.6867 23.2786 56.1022 22.4897 56.5479 21.3696H58.1016C57.1862 24.0796 56.0299 25.9766 54.6328 27.0605C53.6452 27.8314 52.507 28.2168 51.2183 28.2168ZM65.3462 28.5962C63.9491 28.5962 62.7507 28.4276 61.751 28.0903C60.7513 27.7651 59.9202 27.2472 59.2578 26.5366C58.5833 25.814 58.0775 24.8745 57.7402 23.7183C57.415 22.55 57.2524 21.1408 57.2524 19.4907C57.2524 17.6239 57.4692 15.6787 57.9028 13.6553C58.4087 11.3066 59.1313 9.20492 60.0708 7.3501C61.1668 5.19417 62.4977 3.514 64.0635 2.30957C65.846 0.936523 67.8815 0.25 70.1699 0.25C72.0127 0.25 73.4761 0.635417 74.5601 1.40625C75.7524 2.24935 76.3486 3.514 76.3486 5.2002C76.3486 6.26009 76.1559 7.07308 75.7705 7.63916C75.3128 8.28955 74.6383 8.61475 73.7471 8.61475C73.3737 8.61475 73.0063 8.5485 72.645 8.41602C72.2957 8.28353 71.9645 8.0306 71.6514 7.65723C71.8682 7.54883 72.0789 7.38021 72.2837 7.15137C72.4884 6.91048 72.6691 6.63346 72.8257 6.32031C73.175 5.62174 73.3496 4.9292 73.3496 4.24268C73.3496 3.58024 73.181 3.05632 72.8438 2.6709C72.4463 2.21322 71.8621 1.98438 71.0913 1.98438C70.4289 1.98438 69.7725 2.23128 69.1221 2.7251C68.4837 3.20687 67.8695 3.89339 67.2793 4.78467C66.7132 5.63981 66.1893 6.63949 65.7075 7.78369C65.2257 8.9279 64.8162 10.1444 64.479 11.4331C64.1418 12.7339 63.8768 14.0588 63.6841 15.4077C63.4914 16.7567 63.395 18.0454 63.395 19.2739C63.395 20.1893 63.4613 20.9902 63.5938 21.6768C63.7383 22.3633 63.9671 22.9474 64.2803 23.4292C64.9668 24.5011 66.1532 25.0371 67.8394 25.0371C69.2847 25.0371 70.6276 24.7179 71.8682 24.0796C73.1087 23.4292 74.1686 22.5138 75.0479 21.3335L75.897 21.7129C75.4272 22.8932 74.7769 23.929 73.9458 24.8203C73.1268 25.6995 72.1994 26.4282 71.1636 27.0063C70.2121 27.5363 69.2305 27.9338 68.2188 28.1987C67.207 28.4637 66.2495 28.5962 65.3462 28.5962ZM88.2905 28.2168C86.7609 28.2168 85.6287 27.7832 84.894 26.916C84.2557 26.1693 83.9365 25.2118 83.9365 24.0435C83.9365 23.4894 84.0028 22.8451 84.1353 22.1104C84.2798 21.3757 84.4906 20.4302 84.7676 19.2739C85.0446 18.0936 85.2493 17.1541 85.3818 16.4556C85.5264 15.745 85.5986 15.1307 85.5986 14.6128C85.5986 13.3481 85.153 12.7158 84.2617 12.7158C83.6354 12.7158 83.0573 13.047 82.5273 13.7095C82.0817 14.2756 81.6963 15.0825 81.3711 16.1304L78.8599 28H73.5303L78.896 2.8335L84.3701 2.09277L82.3828 11.415C83.1055 10.6081 83.8823 10.042 84.7134 9.7168C85.3276 9.47591 85.9901 9.35547 86.7007 9.35547C87.9533 9.35547 88.9409 9.68066 89.6636 10.3311C90.4344 11.0417 90.8198 12.1076 90.8198 13.5288C90.8198 14.384 90.6632 15.498 90.3501 16.8711C90.2658 17.2686 90.1273 17.8647 89.9346 18.6597C89.5853 19.9966 89.3324 21.0625 89.1758 21.8574C89.0794 22.3633 89.0312 22.7728 89.0312 23.0859C89.0312 23.5798 89.1396 23.9652 89.3564 24.2422C89.5853 24.5072 89.9707 24.6396 90.5127 24.6396C91.2474 24.6396 91.8677 24.3385 92.3735 23.7363C92.759 23.2786 93.1745 22.4897 93.6201 21.3696H95.1738C94.2585 24.0796 93.1022 25.9766 91.7051 27.0605C90.7174 27.8314 89.5793 28.2168 88.2905 28.2168ZM97.2876 28.2168C96.1073 28.2168 95.1738 27.8675 94.4873 27.1689C93.7165 26.3981 93.3311 25.272 93.3311 23.7905C93.3311 23.092 93.4274 22.285 93.6201 21.3696L96.1313 9.5H101.461L98.8052 22.0742C98.7329 22.4476 98.6968 22.7969 98.6968 23.1221C98.6968 24.1338 99.0641 24.6396 99.7988 24.6396C100.473 24.6396 101.082 24.3325 101.624 23.7183C102.057 23.2004 102.437 22.4175 102.762 21.3696L105.273 9.5H110.603L107.947 22.0742C107.838 22.4355 107.784 22.833 107.784 23.2666C107.784 23.7725 107.905 24.1278 108.146 24.3325C108.386 24.5373 108.772 24.6396 109.302 24.6396C109.988 24.6396 110.603 24.3325 111.145 23.7183C111.626 23.1763 112.012 22.3934 112.301 21.3696H113.854C113.192 23.2485 112.391 24.736 111.452 25.832C110.657 26.7354 109.759 27.3857 108.76 27.7832C108.025 28.0723 107.248 28.2168 106.429 28.2168C105.369 28.2168 104.526 27.9217 103.9 27.3315C103.274 26.7414 102.894 25.8682 102.762 24.7119C101.919 26.0609 100.967 27.0244 99.9072 27.6025C99.1484 28.012 98.2752 28.2168 97.2876 28.2168Z" fill="#7763FB"/>
</svg>
