<svg width="18" height="18" viewBox="0 0 18 18" fill="none" xmlns="http://www.w3.org/2000/svg">
<path d="M4.52062 16.1521C5.55681 16.1521 7.26043 16.0568 9.56443 15.6324C9.16595 16.7159 8.12748 17.4922 6.90767 17.4922C5.89357 17.4922 5.00519 16.9551 4.50386 16.1521H4.52062ZM17.5309 10.2412C17.7191 11.2103 17.0395 12.0675 15.5096 12.7905C14.6715 13.186 12.8079 13.9387 9.72976 14.5376C7.35567 14.9985 5.61624 15.1044 4.52138 15.1044C4.19605 15.1044 3.9271 15.0953 3.71529 15.0831C2.0269 14.9863 1.07452 14.4454 0.886334 13.4762C0.600619 12.0081 1.05243 11.4412 1.80138 10.5025L1.99871 10.2549C2.50386 9.61415 2.70119 8.98482 2.37814 7.32463C1.6551 3.60653 3.32976 1.06558 6.97167 0.353958C10.6151 -0.34928 13.1202 1.3772 13.8433 5.09605C14.1656 6.75624 14.5846 7.2652 15.2932 7.66977V7.67053L15.569 7.82672C16.6143 8.41643 17.2452 8.77224 17.5309 10.2412Z" fill="#5458F7"/>
</svg>
