<svg width="18" height="18" viewBox="0 0 18 18" fill="none" xmlns="http://www.w3.org/2000/svg">
<path d="M4.52086 16.1521C5.55705 16.1521 7.26067 16.0568 9.56467 15.6324C9.1662 16.7159 8.12772 17.4922 6.90791 17.4922C5.89382 17.4922 5.00543 16.9551 4.5041 16.1521H4.52086ZM17.5312 10.2412C17.7193 11.2103 17.0397 12.0675 15.5098 12.7905C14.6717 13.186 12.8081 13.9387 9.73001 14.5376C7.35591 14.9985 5.61648 15.1044 4.52163 15.1044C4.19629 15.1044 3.92734 15.0953 3.71553 15.0831C2.02715 14.9863 1.07477 14.4454 0.886578 13.4762C0.600863 12.0081 1.05267 11.4412 1.80163 10.5025L1.99896 10.2549C2.5041 9.61415 2.70143 8.98482 2.37839 7.32463C1.65534 3.60653 3.33001 1.06558 6.97191 0.353958C10.6153 -0.34928 13.1205 1.3772 13.8435 5.09605C14.1658 6.75624 14.5849 7.2652 15.2934 7.66977V7.67053L15.5692 7.82672C16.6146 8.41643 17.2454 8.77224 17.5312 10.2412Z" fill="white"/>
</svg>
